<svg xmlns="http://www.w3.org/2000/svg" viewBox="0 0 64 64">
  <defs>
    <linearGradient id="g1" x1="0%" y1="0%" x2="100%" y2="100%">
      <stop offset="0%" stop-color="#6366f1"/>
      <stop offset="100%" stop-color="#8b5cf6"/>
    </linearGradient>
    <linearGradient id="g2" x1="0%" y1="0%" x2="100%" y2="100%">
      <stop offset="0%" stop-color="#818cf8"/>
      <stop offset="50%" stop-color="#a78bfa"/>
      <stop offset="100%" stop-color="#c084fc"/>
    </linearGradient>
  </defs>
  <rect width="64" height="64" rx="14" fill="url(#g1)"/>
  <!-- Brain circuit -->
  <g stroke="white" stroke-width="2" fill="none" stroke-linecap="round" stroke-linejoin="round" opacity="0.95">
    <path d="M22,22 C22,15 28,11 32,11"/>
    <path d="M32,11 C36,11 42,15 42,22"/>
    <path d="M20,32 C17,28 18,21 24,18"/>
    <path d="M42,22 C47,26 46,34 42,38"/>
    <path d="M22,42 C18,40 17,34 20,32"/>
    <path d="M42,38 C45,43 42,50 37,52"/>
    <path d="M32,53 C26,53 22,48 22,42"/>
    <path d="M37,52 C34,54 32,53 32,53"/>
    <path d="M26,22 L32,28 L38,22"/>
    <path d="M24,36 L32,32 L40,36"/>
    <path d="M28,46 L32,42 L36,46"/>
    <path d="M32,14 L32,50"/>
  </g>
  <!-- Nodes -->
  <g fill="white" opacity="0.95">
    <circle cx="32" cy="11" r="2.5"/>
    <circle cx="32" cy="28" r="2"/>
    <circle cx="32" cy="42" r="2"/>
    <circle cx="32" cy="50" r="2.5"/>
    <circle cx="22" cy="22" r="2"/>
    <circle cx="42" cy="22" r="2"/>
    <circle cx="20" cy="32" r="2"/>
    <circle cx="42" cy="38" r="2"/>
  </g>
</svg>
